{"glyphs":{":":{"x_min":0,"x_max":250,"ha":250,"o":"m 74 389 q 74 427 95 451 q 116 475 149 475 q 177 475 193 459 q 209 442 209 415 q 209 375 188 352 q 167 329 135 329 q 106 329 90 345 q 74 360 74 389 z m 16 42 q 16 85 37 110 q 59 135 90 135 q 119 135 135 119 q 151 103 151 73 q 151 34 130 10 q 110 -13 77 -13 q 48 -13 32 3 q 16 19 16 42 z"},"$":{"x_min":0,"x_max":500,"ha":500,"o":"m 154 -109 l 171 -8 q 130 -6 97 3 q 64 13 16 39 q 23 57 29 95 q 39 156 40 183 l 74 183 q 74 169 70 106 q 102 58 179 41 l 220 286 q 136 302 103 333 q 60 373 60 444 q 60 531 121 594 q 183 658 286 671 q 289 693 294 739 l 335 737 q 328 693 324 672 q 364 671 397 662 q 430 653 467 631 q 446 565 443 497 l 411 498 q 414 522 414 552 l 413 567 q 389 610 317 622 l 278 390 q 376 372 415 333 q 454 293 454 228 q 454 167 421 115 q 388 62 326 26 q 265 -9 211 -8 q 198 -80 194 -109 z m 277 623 q 232 621 203 604 q 174 587 158 557 q 142 526 142 489 q 142 458 162 437 q 183 416 240 400 z m 219 40 q 283 40 321 78 q 358 116 358 175 q 358 200 348 219 q 338 239 319 252 q 306 262 258 276 z"},"?":{"x_min":0,"x_max":444,"ha":444,"o":"m 202 184 q 173 211 167 225 q 158 243 158 263 q 158 286 172 312 q 186 338 228 380 l 250 403 q 292 446 308 475 q 324 505 324 532 q 324 568 299 591 q 273 614 231 614 q 194 614 171 598 q 147 583 131 544 l 120 518 l 87 522 q 113 581 130 648 q 169 673 200 682 q 230 691 266 691 q 352 691 399 649 q 447 607 447 540 q 447 506 435 477 q 422 449 402 428 q 371 397 354 386 l 287 338 q 233 301 217 281 q 201 261 201 243 q 201 220 224 202 z m 101 47 q 101 86 122 109 q 142 133 173 133 q 201 133 218 116 q 234 100 234 73 q 234 35 213 11 q 192 -13 159 -13 q 132 -13 116 2 q 101 18 101 47 z"},"<":{"x_min":0,"x_max":606,"ha":606,"o":"m 552 171 l 552 70 l 54 297 l 54 381 l 552 608 l 552 507 l 180 339 z"},"'":{"x_min":0,"x_max":250,"ha":250,"o":"m 107 418 l 113 584 q 116 642 133 666 q 150 691 175 691 q 198 691 212 675 q 227 659 227 629 q 227 604 214 566 l 163 409 q 156 388 136 388 q 123 388 115 396 q 107 405 107 418 z"},"=":{"x_min":0,"x_max":606,"ha":606,"o":"m 54 385 l 54 476 l 552 476 l 552 385 z m 54 202 l 54 293 l 552 293 l 552 202 z"},"a":{"x_min":0,"x_max":556,"ha":556,"o":"m 504 117 l 514 85 q 393 -13 344 -13 q 328 -13 320 -3 q 309 11 309 32 q 309 62 343 197 l 352 232 q 292 138 269 110 q 231 63 197 36 q 163 9 129 -5 q 109 -13 95 -13 q 69 -13 54 7 q 39 27 39 74 q 39 130 60 208 q 81 287 105 330 q 118 353 159 385 q 237 446 269 460 q 301 475 338 475 q 365 475 392 469 q 418 462 443 450 l 489 475 l 505 465 q 501 456 495 435 l 476 369 l 421 134 q 414 104 414 87 q 414 70 425 70 q 446 70 504 117 z m 376 400 q 354 411 334 417 q 313 422 294 422 q 261 422 237 399 q 213 376 186 285 q 148 163 148 103 q 148 86 154 77 q 160 69 168 69 q 175 69 188 77 q 221 99 264 155 q 308 210 336 270 q 364 330 372 376 z"},"L":{"x_min":0,"x_max":611,"ha":611,"o":"m -3 -5 l 2 29 l 24 29 q 58 29 68 50 q 75 61 108 251 l 139 438 q 149 499 155 554 q 161 608 161 621 q 161 636 152 642 q 143 648 116 648 l 69 648 l 75 681 q 207 678 258 678 q 321 678 398 681 l 392 648 l 365 648 q 322 648 311 640 q 301 632 294 601 q 290 578 266 435 q 224 181 202 51 q 278 46 319 46 q 437 46 469 62 q 483 68 500 125 l 518 175 l 553 175 q 525 52 519 -5 q 398 -5 321 -3 l 178 0 q 56 0 -3 -5 z"},"3":{"x_min":0,"x_max":500,"ha":500,"o":"m 10 29 l 38 190 l 71 188 q 69 157 69 145 q 69 83 97 54 q 125 25 178 25 q 245 25 282 82 q 319 138 319 217 q 319 283 291 314 q 262 345 208 345 q 174 345 136 331 l 131 336 l 146 388 q 163 384 181 384 q 253 384 292 421 q 331 459 331 520 q 331 565 306 589 q 281 614 236 614 q 191 614 162 593 q 132 573 106 521 l 78 533 q 106 586 132 644 q 159 667 195 679 q 232 691 279 691 q 361 691 405 654 q 448 616 448 554 q 448 490 399 445 q 351 399 294 381 l 293 377 q 371 369 409 329 q 448 290 448 225 q 448 163 413 108 q 378 53 314 20 q 251 -13 169 -13 q 126 -13 91 -4 q 55 5 10 29 z"},";":{"x_min":0,"x_max":250,"ha":250,"o":"m 78 384 q 78 427 99 451 q 120 475 152 475 q 182 475 198 459 q 214 443 214 414 q 214 375 193 351 q 171 328 138 328 q 112 328 95 344 q 78 361 78 384 z m -43 -168 l -62 -152 q -18 -83 8 -6 q 34 72 34 111 q 55 114 162 145 l 177 130 q 163 98 120 23 q 95 -20 62 -66 q 28 -113 7 -135 z"},"J":{"x_min":0,"x_max":389,"ha":389,"o":"m -29 -198 l -32 -165 q -13 -171 3 -171 q 40 -171 58 -128 q 70 -97 96 56 l 162 452 q 184 584 184 621 q 184 635 174 640 q 155 648 103 648 l 82 648 l 87 681 q 192 678 276 678 q 354 678 412 681 l 406 648 l 389 648 q 346 648 336 641 q 326 634 319 608 q 312 581 289 455 l 238 145 q 218 26 212 4 q 195 -62 164 -110 q 132 -158 92 -184 q 52 -209 14 -209 q -11 -209 -29 -198 z"},"V":{"x_min":0,"x_max":667,"ha":667,"o":"m 251 -5 q 241 66 212 237 q 198 325 171 472 q 144 620 141 628 q 137 637 128 643 q 120 648 97 648 l 62 648 l 62 681 q 130 678 199 678 q 277 678 359 681 l 359 648 l 322 648 q 298 648 289 641 q 280 634 280 617 q 280 589 292 514 l 322 334 q 344 200 356 137 l 468 345 q 544 487 591 593 q 604 621 604 626 q 604 637 595 643 q 587 648 560 648 l 519 648 l 524 681 q 587 678 635 678 q 681 678 744 681 l 739 648 l 721 648 q 700 648 688 638 q 681 630 651 577 l 410 137 l 333 -5 z"},"\"":{"x_min":0,"x_max":500,"ha":500,"o":"m 331 418 l 337 584 q 339 641 356 666 q 374 691 398 691 q 421 691 436 675 q 450 659 450 629 q 450 604 438 566 l 386 409 q 379 388 360 388 q 346 388 338 396 q 331 405 331 418 z m 134 418 l 140 584 q 142 642 159 666 q 177 691 201 691 q 224 691 239 675 q 253 659 253 629 q 253 604 240 566 l 189 409 q 182 388 163 388 q 149 388 141 396 q 133 405 134 418 z"},"7":{"x_min":0,"x_max":500,"ha":500,"o":"m 83 -3 l 77 9 l 185 176 q 379 466 441 557 q 278 559 243 559 q 148 559 81 553 l 75 559 q 90 633 95 669 l 100 675 q 135 672 186 671 l 278 669 q 319 669 546 670 l 544 633 q 523 609 464 510 q 404 408 345 301 q 305 228 244 103 q 218 50 198 -3 l 188 -2 l 116 0 q 100 0 83 -3 z"},"S":{"x_min":0,"x_max":556,"ha":556,"o":"m 31 37 q 45 104 56 188 l 88 188 l 87 134 l 87 103 q 110 76 152 58 q 194 40 241 40 q 312 40 350 77 q 388 115 388 179 q 388 222 366 244 q 344 265 267 282 q 153 307 121 347 q 89 386 89 451 q 89 548 167 620 q 244 691 358 691 q 402 691 440 681 q 479 670 511 650 q 493 567 487 503 l 453 503 l 455 555 l 454 583 q 436 607 402 623 q 367 638 323 638 q 257 638 221 603 q 184 568 184 508 q 184 474 199 449 q 214 425 242 415 q 282 401 336 389 q 438 366 466 331 q 494 296 494 238 q 494 141 410 64 q 326 -13 208 -13 q 155 -13 111 -1 q 67 12 31 37 z"},"}":{"x_min":0,"x_max":333,"ha":333,"o":"m 192 298 q 158 309 142 326 q 126 343 126 376 q 126 389 129 406 l 168 625 q 170 638 170 649 q 170 668 164 683 q 157 698 145 708 q 137 714 106 725 q 180 725 199 721 q 235 713 253 693 q 270 673 270 637 q 270 625 268 611 l 229 392 q 226 376 226 368 q 226 315 288 298 q 248 290 222 265 q 203 247 196 205 l 160 3 q 152 -41 137 -65 q 122 -90 96 -104 q 71 -119 38 -123 q 27 -124 -43 -124 q -13 -117 6 -104 q 24 -91 34 -75 q 49 -49 53 -25 l 90 184 q 99 235 122 261 q 145 286 192 298 z"},"Z":{"x_min":0,"x_max":667,"ha":667,"o":"m 4 -2 l 2 26 q 37 60 168 226 l 487 628 l 361 628 q 200 628 167 616 q 153 610 126 510 l 89 510 l 99 558 q 112 629 117 678 l 123 682 l 417 678 l 669 678 l 669 650 q 629 608 462 397 q 270 157 189 52 l 343 51 q 492 51 556 68 q 583 115 599 181 l 636 181 q 614 91 598 0 l 594 -2 q 476 0 344 0 l 104 0 z"},"x":{"x_min":0,"x_max":500,"ha":500,"o":"m -9 0 q 8 43 9 103 l 34 105 q 42 63 67 63 q 91 63 126 98 q 162 133 208 203 q 188 341 174 364 q 160 387 132 387 q 114 387 95 375 q 75 363 62 341 l 39 354 l 68 399 q 88 431 99 456 q 121 465 140 470 q 160 475 177 475 q 220 475 246 446 q 273 417 288 331 l 292 306 q 369 417 403 446 q 438 474 472 474 q 486 474 505 466 q 492 436 481 359 l 460 355 q 454 387 430 387 q 386 387 322 298 l 299 267 q 316 152 335 98 q 348 64 372 64 q 396 64 451 115 l 466 91 l 385 24 q 354 1 333 -7 q 318 -13 305 -13 q 248 -13 230 87 l 217 166 l 195 134 q 127 38 89 8 q 63 -13 35 -13 q 19 -13 -9 0 z"},")":{"x_min":0,"x_max":333,"ha":333,"o":"m -32 -103 q 8 -71 59 11 q 109 93 137 195 q 165 297 165 401 q 165 508 140 584 q 114 661 77 708 l 104 729 q 185 625 210 577 q 244 513 260 456 q 275 398 275 341 q 275 263 247 185 q 220 107 165 37 q 110 -32 -7 -126 z"},"&":{"x_min":0,"x_max":833,"ha":833,"o":"m 747 530 q 807 501 807 442 q 807 407 791 378 q 774 349 748 335 q 711 316 657 311 q 642 309 615 303 q 645 291 660 269 q 674 247 674 216 q 674 121 563 54 q 452 -13 316 -13 q 197 -13 133 41 q 69 95 69 181 q 69 248 113 296 q 166 354 271 386 q 228 393 202 421 q 177 450 177 494 q 177 543 210 580 q 243 618 303 654 q 363 691 430 691 q 460 691 489 685 q 518 678 544 666 q 528 608 524 539 l 494 539 l 492 599 q 471 619 446 628 q 421 638 393 638 q 338 638 305 608 q 272 577 272 532 q 272 484 304 454 q 336 424 389 424 q 399 424 414 426 q 403 389 401 368 l 364 369 q 329 371 286 356 q 243 341 215 301 q 187 262 187 208 q 187 134 238 88 q 290 41 380 41 q 471 41 525 86 q 580 131 580 193 q 580 235 557 259 q 534 283 499 283 q 468 283 450 265 q 433 248 424 201 l 399 201 l 409 309 q 437 334 467 347 q 497 359 558 368 l 651 381 q 720 390 745 410 q 770 430 770 457 q 770 492 732 505 l 732 512 z"},"_":{"x_min":0,"x_max":500,"ha":500,"o":"m -6 -75 l 506 -75 l 506 -125 l -6 -125 z"},"v":{"x_min":0,"x_max":556,"ha":556,"o":"m 22 337 l 65 469 q 104 476 134 476 q 154 476 171 474 l 208 470 q 225 468 236 468 q 292 468 316 482 l 330 463 q 296 426 263 367 q 230 308 214 251 q 198 194 198 146 q 198 98 217 74 q 235 50 264 50 q 300 50 332 77 q 376 116 409 197 q 442 277 442 344 q 442 373 431 387 q 420 401 401 401 q 384 401 367 387 l 356 408 q 376 422 396 443 q 416 463 423 475 q 434 478 445 478 q 480 478 499 455 q 518 432 518 381 q 518 296 463 195 q 409 93 338 40 q 268 -13 208 -13 q 154 -13 121 23 q 88 59 88 125 q 88 169 102 209 q 115 249 144 290 q 173 330 257 415 q 221 406 192 406 l 137 406 q 107 406 85 404 q 63 367 51 336 z"},"O":{"x_min":0,"x_max":833,"ha":833,"o":"m 62 262 q 62 392 115 489 q 167 587 257 639 q 347 691 470 691 q 618 691 699 615 q 780 540 780 409 q 780 294 723 194 q 667 94 575 40 q 483 -13 363 -13 q 219 -13 141 60 q 62 134 62 262 z m 201 232 q 201 164 222 121 q 244 78 287 54 q 331 30 389 30 q 461 30 511 69 q 562 108 602 213 q 642 318 642 442 q 642 545 594 597 q 545 648 457 648 q 379 648 328 609 q 276 570 239 468 q 201 366 201 232 z"},"(":{"x_min":0,"x_max":333,"ha":333,"o":"m 229 -126 q 139 -24 93 83 q 57 168 57 264 q 57 345 88 428 q 119 510 185 586 q 230 640 338 729 l 363 705 q 309 654 263 574 q 217 495 192 398 q 167 302 167 197 q 167 9 255 -105 z"},"C":{"x_min":0,"x_max":685,"ha":685,"o":"m 625 119 l 613 81 q 532 33 497 18 q 461 3 421 -5 q 381 -13 337 -13 q 204 -13 133 56 q 62 125 62 253 q 62 381 115 475 q 168 569 274 630 q 380 691 495 691 q 551 691 602 678 q 652 665 684 646 q 654 549 647 482 l 613 482 q 615 501 615 518 q 615 537 611 579 q 579 604 541 616 q 503 628 451 628 q 367 628 318 594 q 268 560 238 481 q 199 383 199 264 q 199 156 250 103 q 300 50 394 50 q 446 50 495 66 q 545 83 614 128 z"},"W":{"x_min":0,"x_max":1000,"ha":1000,"o":"m 200 -5 q 181 186 158 407 q 149 496 134 594 q 129 631 119 639 q 109 648 77 648 l 51 648 l 57 681 q 142 679 208 679 q 274 679 348 681 l 347 648 l 322 648 q 285 648 275 641 q 266 633 266 611 q 266 579 290 334 l 308 150 q 399 342 457 459 l 566 692 l 598 692 q 603 679 623 608 l 665 452 l 751 137 q 855 411 881 478 q 900 529 917 588 q 923 614 923 624 q 923 636 912 642 q 901 648 868 648 l 836 648 l 842 681 q 940 678 967 678 q 1008 678 1062 681 l 1056 648 l 1044 648 q 1013 648 1003 633 q 993 618 913 416 l 804 146 q 765 48 746 -5 l 662 -5 q 650 45 631 113 q 606 206 525 493 q 417 274 282 -5 z"},"A":{"x_min":0,"x_max":722,"ha":722,"o":"m -47 -5 l -46 29 l -27 29 q -7 29 6 34 q 19 39 27 50 l 66 116 l 325 558 q 379 651 397 686 l 494 686 q 500 638 508 585 l 575 156 q 586 86 591 66 q 596 45 603 40 q 610 34 630 32 l 652 29 q 664 29 676 29 l 676 -5 q 617 0 539 0 q 438 0 374 -5 l 375 29 l 394 29 q 427 29 442 35 q 457 41 457 59 q 457 89 449 142 l 432 265 l 354 265 l 209 265 l 168 191 q 104 76 104 53 q 104 42 116 37 q 135 29 193 29 l 188 -5 q 127 0 69 0 q 11 0 -47 -5 z m 385 572 l 233 313 l 330 312 l 425 313 z"},"f":{"x_min":0,"x_max":333,"ha":333,"o":"m 25 404 l 30 430 q 48 436 80 445 q 112 454 132 463 l 138 489 q 150 541 168 567 q 187 594 253 647 q 319 701 356 720 q 376 730 407 730 q 433 730 450 722 q 429 653 421 597 l 406 593 q 369 654 332 654 q 312 654 298 638 q 283 623 271 575 q 250 483 245 455 l 257 455 q 276 455 329 458 q 355 460 370 463 l 375 455 q 362 423 358 404 l 299 405 l 233 404 l 199 258 q 140 8 98 -84 q 56 -176 -23 -239 q -74 -278 -111 -278 q -128 -278 -148 -270 q -120 -195 -115 -162 l -99 -159 q -81 -201 -49 -201 q -37 -201 -26 -195 q -15 -188 -7 -173 q 1 -157 17 -95 l 43 27 l 119 404 l 72 405 z"},"Q":{"x_min":0,"x_max":833,"ha":833,"o":"m 65 257 q 65 455 178 573 q 291 691 472 691 q 620 691 701 616 q 782 541 782 410 q 782 258 688 138 q 569 -13 368 -13 q 271 -13 203 20 q 135 54 100 113 q 65 173 65 257 z m 204 226 q 204 132 253 81 q 303 30 388 30 q 463 30 514 68 q 564 107 604 212 q 645 318 645 444 q 645 547 596 597 q 548 648 458 648 q 382 648 331 609 q 279 569 241 466 q 204 362 204 226 z m 142 -160 l 141 -146 q 141 -90 178 -52 q 215 -15 271 -15 q 296 -15 329 -23 q 361 -32 430 -62 q 563 -120 593 -132 q 623 -144 646 -144 q 678 -144 699 -123 q 719 -102 731 -47 l 762 -57 q 743 -144 704 -185 q 665 -226 618 -226 q 563 -226 482 -180 l 373 -119 q 290 -73 249 -73 q 226 -73 209 -83 q 192 -94 184 -113 q 175 -131 171 -174 z"},"w":{"x_min":0,"x_max":833,"ha":833,"o":"m 19 337 q 26 363 41 400 q 58 443 59 469 q 94 475 108 475 q 136 475 159 473 l 200 469 q 218 468 232 468 q 289 468 317 479 l 331 463 q 263 388 227 303 q 191 219 191 146 q 191 95 207 72 q 222 50 244 50 q 278 50 322 105 q 384 184 412 307 q 440 430 440 452 q 489 461 548 479 l 561 469 q 549 435 519 314 q 490 199 490 128 q 490 90 506 70 q 522 50 547 50 q 576 50 609 79 q 658 123 691 199 q 724 276 724 345 q 724 374 711 389 q 698 404 677 404 q 661 404 643 392 l 631 415 q 663 432 702 472 q 718 476 728 476 q 758 476 779 451 q 799 426 799 379 q 799 295 744 197 q 690 99 607 37 q 541 -13 485 -13 q 444 -13 417 15 q 391 44 391 91 q 391 126 400 176 l 389 157 q 359 106 336 80 q 292 29 254 8 q 217 -13 185 -13 q 140 -13 111 22 q 82 57 82 122 q 82 166 95 207 q 109 248 138 288 q 167 328 253 415 q 221 405 169 405 l 136 405 q 109 405 81 402 l 49 335 z"},"-":{"x_min":0,"x_max":389,"ha":389,"o":"m 19 188 l 14 198 q 42 241 63 300 q 154 297 209 297 q 269 297 348 300 l 353 290 q 327 245 302 188 q 227 191 160 191 q 90 191 19 188 z"},"E":{"x_min":0,"x_max":611,"ha":611,"o":"m -3 -5 l 2 29 q 53 36 62 44 q 71 52 83 112 q 88 136 122 341 l 156 543 q 166 601 166 621 q 166 634 156 639 q 140 648 105 648 l 69 648 l 75 681 l 132 680 l 187 678 l 366 680 l 527 680 q 565 680 589 676 l 594 672 q 578 596 568 519 l 534 519 l 536 551 l 536 590 q 536 613 522 618 q 481 633 379 633 q 336 633 297 627 q 271 470 255 378 l 398 374 q 417 374 485 378 l 488 372 l 477 324 q 380 329 287 329 q 266 329 247 328 l 201 53 q 253 46 306 46 q 385 46 438 55 q 467 60 473 66 q 482 75 498 128 l 510 169 l 545 169 l 530 80 q 521 36 518 5 l 511 -3 q 488 -5 464 -5 l 82 2 q 41 2 -3 -5 z"},"s":{"x_min":0,"x_max":444,"ha":444,"o":"m 18 14 q 35 82 40 145 l 70 145 l 71 98 q 92 72 127 56 q 162 40 197 40 q 242 40 265 60 q 289 81 289 114 q 289 140 273 157 q 257 174 220 182 l 178 191 q 119 203 97 223 q 64 253 64 302 q 64 360 104 394 q 199 475 289 475 q 317 475 346 468 q 375 460 404 446 q 392 394 385 328 l 355 328 l 350 376 q 321 402 294 412 q 267 422 239 422 q 203 422 181 402 q 159 382 159 352 q 159 322 180 305 q 201 287 259 277 l 286 272 q 337 264 363 235 q 389 207 389 164 q 389 120 358 85 q 328 51 274 19 q 220 -13 152 -13 q 120 -13 94 -8 q 69 -3 18 14 z"},">":{"x_min":0,"x_max":606,"ha":606,"o":"m 54 507 l 54 608 l 552 381 l 552 297 l 54 70 l 54 171 l 426 339 z"},"l":{"x_min":0,"x_max":333,"ha":333,"o":"m 289 119 l 303 92 l 216 33 q 164 1 144 -6 q 125 -13 112 -13 q 97 -13 87 0 q 77 14 77 43 q 77 86 94 156 l 157 418 q 172 479 189 569 q 198 625 198 634 q 198 644 189 648 q 177 655 144 655 l 115 655 l 120 684 q 225 696 322 729 l 333 718 l 299 577 l 229 280 q 194 131 194 95 q 194 83 198 77 q 202 72 208 72 q 215 72 229 80 q 266 100 289 119 z"},"8":{"x_min":0,"x_max":500,"ha":500,"o":"m 177 333 l 162 343 q 83 389 83 479 q 83 558 150 619 q 230 691 319 691 q 387 691 427 654 q 468 616 468 558 q 468 527 457 501 q 445 474 420 449 q 396 425 324 379 q 387 346 414 308 q 441 269 441 220 q 441 128 368 66 q 275 -13 185 -13 q 107 -13 61 29 q 15 71 15 140 q 15 180 33 213 q 51 247 92 280 q 114 297 177 333 z m 294 396 q 345 433 369 471 q 386 500 386 538 q 386 588 359 616 q 333 643 286 643 q 239 643 208 612 q 177 581 177 532 q 177 495 197 467 q 217 438 270 410 z m 207 315 q 155 288 126 244 q 97 200 97 152 q 97 98 129 66 q 160 35 212 35 q 270 35 303 73 q 336 111 336 166 q 336 205 315 234 q 294 263 234 299 z"},"\\":{"x_min":0,"x_max":606,"ha":606,"o":"m 475 -125 l 414 -125 q 403 -125 358 -126 q 350 -74 334 -18 l 169 593 q 149 666 127 723 l 183 722 q 196 722 244 726 q 248 684 268 614 l 433 5 q 452 -61 475 -125 z"},"e":{"x_min":0,"x_max":444,"ha":444,"o":"m 388 118 l 399 91 l 316 39 q 264 10 228 -2 q 192 -13 163 -13 q 104 -13 71 18 q 39 49 39 108 q 39 176 67 267 q 88 332 123 369 q 158 407 242 450 q 289 475 337 475 q 382 475 407 452 q 433 430 433 394 q 433 350 407 313 q 382 275 318 244 q 253 213 159 198 q 148 163 148 132 q 148 93 168 73 q 188 54 225 54 q 252 54 296 70 q 340 86 388 118 z m 163 225 q 238 246 268 265 q 298 284 318 319 q 337 354 337 381 q 337 402 324 415 q 312 427 290 427 q 266 427 244 412 q 222 396 203 357 q 185 317 163 225 z"},"b":{"x_min":0,"x_max":537,"ha":537,"o":"m 62 655 l 69 684 q 210 705 268 729 l 279 720 q 275 704 259 633 l 190 315 q 234 375 274 408 q 314 441 357 458 q 400 475 436 475 q 467 475 483 451 q 504 419 504 358 q 504 263 463 175 q 431 105 361 56 q 262 -13 176 -13 q 113 -13 83 15 q 52 42 52 96 q 52 123 65 194 l 105 411 q 142 609 142 633 q 142 645 134 650 q 125 655 99 655 z m 162 117 q 162 77 182 56 q 201 35 232 35 q 262 35 291 61 q 330 96 359 176 q 388 257 388 329 q 388 370 376 387 q 365 405 349 405 q 317 405 271 367 q 224 330 193 260 q 162 190 162 117 z"},"%":{"x_min":0,"x_max":889,"ha":889,"o":"m 64 418 q 64 549 121 628 q 165 691 234 691 q 290 691 322 652 q 354 614 354 533 q 354 422 304 345 q 255 269 182 269 q 129 269 97 307 q 64 345 64 418 z m 146 356 q 146 327 156 315 q 166 302 184 302 q 201 302 212 315 q 230 336 251 432 q 271 529 271 602 q 271 631 261 645 q 250 658 232 658 q 216 658 205 645 q 186 623 166 532 q 146 441 146 356 z m 207 -1 q 239 43 292 130 l 562 570 q 609 651 623 682 q 652 678 667 678 l 692 678 q 655 628 607 549 l 336 107 q 289 27 276 -2 l 238 0 z m 543 141 q 543 272 600 352 q 644 414 713 414 q 769 414 801 375 q 833 337 833 256 q 833 145 783 69 q 734 -8 661 -8 q 608 -8 576 30 q 543 68 543 141 z m 625 79 q 625 50 635 38 q 645 25 663 25 q 680 25 691 38 q 709 59 730 156 q 750 252 750 325 q 750 354 740 368 q 729 381 711 381 q 695 381 684 368 q 665 346 645 255 q 625 164 625 79 z"},"m":{"x_min":0,"x_max":833,"ha":833,"o":"m 49 -13 l 39 0 l 51 38 q 62 70 78 133 q 102 219 116 298 q 124 342 124 356 q 124 371 120 378 q 117 383 111 383 q 93 383 35 333 l 21 358 q 104 422 126 438 q 160 460 184 469 q 200 475 210 475 q 224 475 232 467 q 240 458 240 445 q 240 431 234 403 q 219 331 212 310 l 192 223 q 256 333 326 395 q 417 475 471 475 q 487 475 497 464 q 506 454 506 435 q 506 416 497 374 q 471 279 456 223 q 502 310 556 365 q 610 421 661 448 q 713 475 745 475 q 762 475 772 463 q 781 451 781 424 q 781 399 758 314 l 738 241 q 728 205 714 133 q 707 92 707 84 q 707 67 718 67 q 725 67 734 73 q 771 95 794 114 l 807 90 l 724 30 q 685 5 660 -4 q 635 -13 622 -13 q 605 -13 595 -2 q 584 10 584 31 q 584 50 594 90 l 649 303 q 659 343 659 356 q 659 368 654 373 q 650 379 643 379 q 632 379 618 372 q 590 357 554 318 q 517 278 490 230 q 463 183 442 111 q 421 40 418 0 q 385 0 314 -13 l 302 0 q 313 28 348 141 q 365 192 383 284 q 396 350 396 371 q 396 382 392 388 q 387 394 378 394 q 361 394 333 371 q 289 336 237 251 q 199 189 180 116 q 160 43 157 4 q 112 4 49 -13 z"},"#":{"x_min":0,"x_max":606,"ha":606,"o":"m 534 292 l 534 217 l 428 217 l 396 0 l 319 0 l 351 217 l 243 217 l 211 0 l 135 0 l 167 217 l 63 217 l 63 292 l 179 292 l 196 399 l 91 399 l 91 474 l 207 474 l 237 677 l 311 677 l 282 474 l 389 474 l 418 677 l 495 677 l 465 474 l 559 474 l 559 399 l 454 399 l 439 292 z m 378 399 l 271 399 l 255 292 l 361 292 z"},",":{"x_min":0,"x_max":250,"ha":250,"o":"m -33 -167 l -52 -153 q -16 -101 13 -21 q 42 58 45 110 l 132 133 q 159 139 172 145 l 188 130 l 145 44 q 119 -1 87 -46 q 56 -91 19 -133 z"},"n":{"x_min":0,"x_max":556,"ha":556,"o":"m 44 -13 l 32 0 q 42 26 49 48 q 73 127 82 160 q 99 219 110 282 q 121 345 121 364 q 121 379 109 379 q 103 379 88 371 q 59 355 36 337 l 23 363 l 97 419 q 146 454 177 467 q 194 475 210 475 q 224 475 231 468 q 238 460 238 445 q 238 431 234 410 q 223 354 210 308 l 190 234 q 229 297 242 313 q 282 363 329 403 q 375 442 417 461 q 446 475 468 475 q 488 475 499 463 q 510 451 510 429 q 510 397 480 292 l 455 202 q 435 130 435 89 q 435 71 446 71 q 455 71 471 80 q 502 98 519 115 l 531 86 q 445 24 415 8 q 374 -13 348 -13 q 330 -13 321 -1 q 312 10 312 40 q 312 71 332 139 l 348 193 q 369 265 374 289 q 387 345 387 361 q 387 370 382 375 q 376 380 368 380 q 343 380 301 338 q 243 280 205 197 q 167 115 151 6 q 89 1 44 -13 z"},"h":{"x_min":0,"x_max":556,"ha":556,"o":"m 40 -13 l 30 -5 q 59 88 83 202 l 98 271 q 117 359 156 568 q 165 616 165 627 q 165 643 154 649 q 144 655 108 655 l 82 655 l 87 684 q 131 687 187 700 q 243 712 288 729 l 298 720 q 274 629 249 519 l 189 251 q 267 366 345 420 q 424 475 471 475 q 492 475 501 465 q 511 455 511 432 q 511 414 506 389 q 504 378 479 289 l 460 221 q 429 110 429 94 q 429 85 435 79 q 440 72 448 72 q 455 72 467 80 q 504 101 520 115 l 531 88 q 395 -13 353 -13 q 333 -13 323 -1 q 313 11 313 36 q 313 60 321 93 l 354 216 l 367 261 q 375 291 387 350 q 389 361 389 365 q 389 374 384 379 q 378 384 370 384 q 345 384 306 351 q 246 299 202 210 q 158 121 143 5 q 97 2 40 -13 z"},"z":{"x_min":0,"x_max":500,"ha":500,"o":"m 36 -7 l 24 29 l 366 380 q 328 362 280 362 q 223 362 173 380 q 155 387 145 387 q 131 387 122 373 q 108 352 98 322 l 70 324 l 117 465 q 130 470 144 472 q 157 474 170 474 q 205 474 273 456 q 339 438 378 438 q 404 438 421 447 q 434 453 448 475 l 467 467 l 454 416 l 123 80 q 180 104 216 104 q 243 104 292 96 q 350 86 369 86 q 376 86 392 88 l 418 145 l 446 143 q 423 75 407 0 q 382 -13 348 -13 q 325 -13 303 -10 q 289 -7 227 9 q 159 26 116 26 q 66 26 36 -7 z"},"B":{"x_min":0,"x_max":667,"ha":667,"o":"m 11 -5 l 16 29 l 28 29 q 51 29 72 39 q 81 42 85 58 q 93 84 109 180 l 152 437 q 176 582 176 621 q 176 635 168 640 q 153 648 120 648 l 84 648 l 90 681 q 143 678 254 678 l 423 681 q 505 681 546 665 q 588 648 609 617 q 630 586 630 542 q 630 479 584 432 q 539 384 436 360 q 533 347 570 310 q 607 274 607 209 q 607 153 575 105 q 542 57 477 26 q 411 -6 334 -6 l 138 0 q 107 0 11 -5 z m 269 374 l 315 373 q 385 373 422 391 q 460 410 481 448 q 503 487 503 538 q 503 572 489 594 q 475 617 449 627 q 424 638 368 638 q 339 638 312 634 l 292 515 z m 215 50 q 298 37 326 37 q 375 37 405 54 q 434 72 454 115 q 475 157 475 208 q 475 270 441 301 q 407 332 330 332 l 262 331 l 239 197 z"},"K":{"x_min":0,"x_max":722,"ha":722,"o":"m -4 -5 l 1 29 l 33 29 q 75 29 83 43 q 92 57 114 188 l 158 452 q 181 590 181 616 q 181 635 171 641 q 161 648 122 648 l 88 648 l 94 681 q 158 678 224 678 q 259 678 410 681 l 404 648 l 384 648 q 332 648 322 634 q 312 620 292 494 l 265 336 q 307 362 401 453 l 450 500 q 537 584 572 627 q 585 644 585 664 l 588 681 l 693 678 q 715 678 748 681 l 747 648 l 722 645 q 696 641 681 634 q 666 626 636 602 q 562 538 512 492 l 388 375 l 583 106 q 627 45 638 37 q 649 29 672 29 l 693 29 l 688 -5 q 672 -5 607 -1 l 572 0 q 542 0 506 -5 l 466 57 q 423 119 384 173 q 303 284 264 330 l 251 251 q 223 83 223 64 q 223 47 231 41 q 239 36 281 32 l 312 29 l 307 -5 l 124 0 q 59 0 -4 -5 z"},"R":{"x_min":0,"x_max":722,"ha":722,"o":"m -17 -5 l -12 29 l 17 29 q 52 29 62 38 q 72 47 84 111 l 116 305 l 158 554 q 165 596 165 618 q 165 633 154 641 q 144 648 113 648 l 73 648 l 78 681 q 130 678 241 678 l 435 682 q 514 682 551 666 q 588 650 611 616 q 633 583 633 539 q 633 471 584 422 q 536 374 428 353 l 497 242 l 562 132 q 606 56 621 42 q 636 29 663 29 l 680 29 l 674 -5 q 617 0 574 0 q 534 0 494 -5 l 478 24 q 456 67 435 104 l 368 219 q 337 273 285 353 l 287 369 l 323 368 q 401 368 450 408 q 500 449 500 529 q 500 584 470 611 q 440 638 373 638 q 346 638 298 630 l 267 446 l 221 168 q 207 83 207 61 q 207 43 219 36 q 230 29 272 29 l 299 29 l 294 -5 l 128 0 q 95 0 -17 -5 z"},"T":{"x_min":0,"x_max":611,"ha":611,"o":"m 92 -5 l 97 29 l 138 29 q 169 29 178 35 q 188 42 192 59 q 197 76 215 177 q 250 383 290 628 l 240 628 q 147 628 118 616 q 97 607 86 546 l 80 507 l 42 507 q 58 593 66 680 l 72 685 l 277 680 l 416 680 q 579 680 649 685 l 657 680 l 647 629 q 633 554 628 507 l 591 507 q 595 558 595 586 q 595 614 582 621 q 569 628 500 628 l 417 628 q 394 486 337 146 q 326 82 326 59 q 326 43 337 36 q 347 29 381 29 l 422 29 l 417 -5 q 308 0 241 0 q 168 0 92 -5 z"},"P":{"x_min":0,"x_max":667,"ha":667,"o":"m -8 -5 l -3 29 l 31 29 q 74 29 82 45 q 93 65 123 240 l 166 499 q 180 583 180 612 q 180 633 168 640 q 157 648 118 648 l 80 648 l 85 681 l 227 678 l 454 683 q 563 683 608 637 q 653 592 653 516 q 653 418 580 349 q 507 280 400 280 q 362 280 307 299 l 303 333 q 349 317 379 317 q 414 317 446 340 q 478 362 499 407 q 520 453 520 509 q 520 574 487 606 q 455 639 392 639 q 347 639 315 632 l 281 431 l 242 194 q 224 88 224 61 q 224 44 235 39 q 253 29 299 29 l 327 29 l 322 -5 q 185 0 157 0 z"},"|":{"x_min":0,"x_max":606,"ha":606,"o":"m 264 -123 l 264 725 l 362 725 l 362 -123 z"},"t":{"x_min":0,"x_max":389,"ha":389,"o":"m 336 132 l 348 104 l 274 51 q 218 12 188 0 q 158 -13 139 -13 q 114 -13 99 3 q 83 20 83 50 q 83 66 88 88 q 92 109 128 270 q 152 375 157 403 l 49 403 l 56 430 q 103 440 171 463 q 188 560 189 601 q 241 614 312 640 l 322 628 q 297 542 276 455 l 327 455 q 381 455 412 459 l 416 455 l 409 430 q 404 414 403 399 q 360 403 317 403 l 265 403 q 249 346 222 218 q 201 118 201 95 q 201 82 208 75 q 214 68 225 68 q 239 68 261 80 q 302 102 336 132 z"},"M":{"x_min":0,"x_max":944,"ha":944,"o":"m -34 -4 l -29 29 l -11 29 q 24 29 35 49 q 46 68 92 246 l 160 510 q 182 593 182 611 q 182 629 168 638 q 154 648 122 648 l 83 648 l 88 681 q 119 679 222 679 q 286 679 309 681 q 319 636 354 507 l 441 176 l 580 403 q 635 494 745 681 q 842 679 868 679 q 909 679 973 681 l 967 648 l 945 648 q 906 648 895 633 q 883 618 869 530 l 807 158 q 794 84 794 61 q 794 42 805 36 q 815 29 853 29 l 882 29 l 877 -4 l 714 0 q 685 0 570 -4 l 575 29 l 601 29 q 644 29 654 45 q 665 62 685 185 l 746 581 l 587 324 q 499 182 438 69 l 391 -17 l 364 -17 q 332 110 293 253 l 216 546 q 158 304 119 143 q 105 80 105 57 q 105 43 116 36 q 126 29 155 29 l 191 29 l 186 -4 q 85 0 68 0 q 35 0 -34 -4 z"},"g":{"x_min":0,"x_max":500,"ha":500,"o":"m 141 13 q 115 37 115 61 q 115 81 130 90 l 169 113 q 195 128 210 140 l 189 139 q 150 139 114 157 q 86 170 71 196 q 56 222 56 262 q 56 311 78 354 q 101 396 130 416 q 159 436 233 463 q 267 475 296 475 q 337 475 365 462 q 382 455 396 453 q 410 451 432 451 l 529 454 l 534 446 l 522 395 q 493 400 448 400 l 435 399 q 445 373 445 345 q 445 305 427 265 q 410 224 385 203 q 359 181 297 157 q 253 140 239 128 q 225 115 225 105 q 225 96 232 87 q 243 75 271 55 l 336 8 q 379 -22 395 -48 q 411 -74 411 -105 q 411 -174 350 -219 q 274 -275 154 -275 q 48 -275 -3 -239 q -54 -203 -54 -150 q -54 -116 -29 -82 q -4 -48 42 -25 q 64 -14 141 13 z m 156 265 q 156 218 176 196 q 196 174 232 174 q 261 174 284 192 q 307 209 324 252 q 340 295 340 344 q 340 389 320 411 q 300 432 264 432 q 213 432 185 380 q 156 328 156 265 z m 163 -5 l 113 -28 q 84 -43 67 -59 q 50 -74 41 -94 q 32 -113 32 -136 q 32 -179 70 -208 q 107 -237 172 -237 q 235 -237 271 -209 q 306 -181 306 -142 q 306 -120 291 -101 q 275 -82 207 -35 z"},"j":{"x_min":0,"x_max":333,"ha":333,"o":"m 206 620 q 206 658 225 679 q 244 700 274 700 q 298 700 313 685 q 328 670 328 646 q 328 611 308 589 q 289 567 259 567 q 235 567 220 582 q 206 597 206 620 z m -76 -274 q -64 -235 -60 -195 l -45 -192 l -42 -198 q -21 -228 0 -228 q 21 -228 31 -206 q 46 -171 92 48 l 134 250 q 151 337 151 360 q 151 377 140 377 q 133 377 116 368 q 83 351 46 323 l 33 350 q 157 439 194 457 q 231 475 253 475 q 265 475 272 466 q 279 457 279 438 q 279 414 266 356 l 227 193 l 193 61 q 164 -54 141 -107 q 118 -161 77 -208 q 36 -256 12 -269 q -11 -281 -35 -281 q -50 -281 -76 -274 z"},"i":{"x_min":0,"x_max":333,"ha":333,"o":"m 198 620 q 198 657 217 679 q 237 700 267 700 q 291 700 306 685 q 321 670 321 646 q 321 612 302 590 q 282 568 252 568 q 228 568 213 583 q 198 598 198 620 z m 42 326 l 30 353 q 148 438 180 455 q 221 475 242 475 q 255 475 264 465 q 272 455 272 437 q 272 402 241 294 l 225 242 q 188 120 188 87 q 188 71 202 71 q 215 71 286 118 l 299 92 l 198 24 q 157 -1 137 -8 q 123 -13 110 -13 q 92 -13 82 -1 q 72 12 72 40 q 72 76 87 133 l 120 250 q 145 337 145 363 q 145 376 133 376 q 125 376 110 368 q 72 349 42 326 z"},"y":{"x_min":0,"x_max":556,"ha":556,"o":"m 16 -178 l 78 -139 l 93 -145 q 91 -155 91 -161 q 91 -193 109 -212 q 127 -232 156 -232 q 181 -232 205 -216 q 229 -201 249 -164 q 269 -127 294 -49 q 323 54 351 165 q 298 91 258 51 q 217 12 184 -5 q 159 -18 145 -18 q 125 -18 111 4 q 96 25 96 72 q 96 100 102 144 l 111 221 q 125 333 125 351 q 125 377 120 385 q 116 394 107 394 q 99 394 83 383 q 44 358 25 337 l 12 365 q 18 369 69 408 q 119 447 154 463 q 179 475 196 475 q 214 475 225 460 q 235 446 235 413 q 235 396 233 375 l 212 201 q 206 153 206 109 q 206 85 211 77 q 216 69 224 69 q 244 69 282 115 q 347 192 381 299 q 415 405 417 449 q 446 453 530 473 l 542 464 q 522 414 503 344 l 456 178 q 412 21 380 -48 q 328 -161 254 -218 q 180 -275 117 -275 q 84 -275 61 -263 q 38 -252 27 -234 q 16 -217 16 -187 z"},"@":{"x_min":0,"x_max":833,"ha":833,"o":"m 693 177 l 757 177 q 728 124 701 96 q 651 46 589 18 q 527 -10 455 -10 q 356 -10 273 36 q 189 83 144 160 q 99 238 99 333 q 99 431 145 513 q 191 595 271 641 q 352 688 446 688 q 581 688 678 601 q 763 525 763 410 q 763 335 733 278 q 703 221 644 181 q 584 141 541 141 q 512 141 493 160 q 475 178 468 223 q 436 180 417 167 q 388 146 353 146 q 301 146 263 186 q 225 226 225 286 q 225 343 254 394 q 283 445 333 476 q 383 507 432 507 q 464 507 485 490 q 505 473 514 438 l 529 498 l 625 498 l 552 227 q 546 208 546 201 q 546 188 552 181 q 558 174 567 174 q 587 174 618 200 q 658 234 684 293 q 710 351 710 404 q 710 494 635 562 q 561 631 452 631 q 366 631 298 593 q 229 556 191 488 q 152 419 152 337 q 152 256 190 190 q 229 125 301 85 q 373 46 459 46 q 507 46 547 60 q 586 74 623 102 q 659 130 693 177 z m 495 401 q 495 440 481 459 q 467 477 446 477 q 423 477 397 454 q 371 430 345 365 q 320 300 320 249 q 320 213 334 194 q 349 176 369 176 q 396 176 427 209 q 458 242 476 304 q 495 367 495 401 z"},".":{"x_min":0,"x_max":250,"ha":250,"o":"m 15 51 q 15 92 35 117 q 56 141 89 141 q 119 141 137 123 q 155 105 155 74 q 155 35 133 11 q 112 -13 80 -13 q 50 -13 32 4 q 15 22 15 51 z"},"p":{"x_min":0,"x_max":556,"ha":556,"o":"m -9 -273 l -19 -265 q 7 -175 24 -107 q 40 -49 77 111 q 123 308 123 364 q 123 380 110 380 q 95 380 36 339 l 23 364 q 122 438 160 456 q 198 475 220 475 q 232 475 239 467 q 246 458 246 444 q 246 434 243 418 l 220 320 l 206 268 q 273 368 338 416 q 417 475 471 475 q 496 475 507 455 q 529 419 529 365 q 529 304 506 231 q 483 158 456 122 q 429 85 382 54 q 335 24 289 2 q 258 -13 210 -13 q 185 -13 157 -6 l 144 -52 q 135 -83 118 -160 q 112 -185 110 -205 q 107 -225 106 -252 q 42 -256 -9 -273 z m 167 62 q 225 35 263 35 q 296 35 319 56 q 349 85 380 177 q 412 269 412 346 q 412 376 405 387 q 399 397 387 397 q 363 397 328 371 q 275 331 236 261 q 196 191 175 97 z"},"X":{"x_min":0,"x_max":722,"ha":722,"o":"m -29 -5 l -23 29 l 1 29 q 39 29 57 45 l 171 171 l 264 271 l 312 323 l 211 516 q 156 621 141 634 q 127 648 91 648 l 55 648 l 61 681 q 126 678 228 678 q 322 678 380 681 l 380 648 l 358 648 q 323 648 312 643 q 301 638 301 628 q 301 619 306 607 q 315 584 343 532 l 403 417 l 480 505 q 573 612 573 628 q 573 636 563 642 q 554 648 527 648 l 489 648 l 491 681 q 556 678 621 678 q 687 678 753 681 l 748 648 l 731 648 q 693 648 674 633 q 643 609 523 480 l 426 375 l 521 193 q 594 51 604 40 q 614 29 656 29 l 676 29 l 670 -5 q 592 0 521 0 q 451 0 363 -5 l 365 29 l 405 29 q 430 29 438 35 q 446 41 446 52 q 446 67 421 115 l 335 280 l 270 206 q 249 184 194 117 q 163 79 158 69 q 153 59 153 54 q 153 42 163 35 q 173 29 206 29 l 241 29 l 239 -5 q 164 0 101 0 q 37 0 -29 -5 z"},"*":{"x_min":0,"x_max":444,"ha":444,"o":"m 132 380 q 115 414 89 455 l 91 459 q 167 484 236 514 q 177 544 91 579 l 90 585 q 117 620 134 659 l 143 659 q 203 587 252 541 q 259 589 269 686 l 274 691 q 297 683 312 680 l 363 671 l 366 664 q 307 568 285 526 q 385 542 431 555 l 439 547 q 438 529 438 512 q 438 497 439 466 l 433 462 q 325 492 278 498 l 352 368 l 350 359 q 307 347 271 332 l 263 336 q 259 416 250 487 q 195 432 142 379 z"},"Y":{"x_min":0,"x_max":611,"ha":611,"o":"m 110 -5 l 116 30 l 155 30 q 185 30 196 36 q 208 43 212 57 q 221 98 225 125 q 242 229 242 246 q 242 286 193 438 q 157 548 124 584 q 105 604 81 604 q 62 604 25 587 l 25 620 q 52 638 70 654 l 114 690 q 128 693 141 693 q 181 693 212 670 q 243 647 268 588 q 302 505 329 380 l 347 301 q 404 438 470 534 q 536 630 583 662 q 615 684 648 684 l 643 593 q 605 586 571 559 q 520 518 469 438 q 418 359 391 289 q 372 244 356 149 l 349 107 q 344 77 344 62 q 344 45 356 37 q 369 30 408 30 l 446 30 l 440 -5 q 372 0 314 0 q 236 0 110 -5 z"},"c":{"x_min":0,"x_max":444,"ha":444,"o":"m 399 125 l 410 93 q 311 26 261 7 q 211 -13 170 -13 q 109 -13 74 22 q 40 58 40 122 q 40 180 58 245 q 76 309 99 342 q 123 375 171 405 l 257 456 q 295 475 341 475 q 364 475 391 469 q 417 462 448 450 q 427 399 412 309 l 378 309 q 384 346 384 360 l 383 376 q 362 394 339 403 q 316 412 291 412 q 253 412 231 393 q 201 366 185 309 q 157 211 157 145 q 157 100 177 75 q 198 50 232 50 q 265 50 311 70 q 358 90 399 125 z"},"!":{"x_min":0,"x_max":333,"ha":333,"o":"m 125 189 l 112 197 q 119 248 141 502 q 152 634 152 662 q 185 663 291 691 l 303 682 l 280 607 l 188 301 q 170 244 165 213 z m 52 45 q 52 79 70 106 q 88 133 124 133 q 152 133 168 116 q 185 100 185 73 q 185 35 164 11 q 143 -13 110 -13 q 83 -13 68 2 q 52 18 52 45 z"},"/":{"x_min":0,"x_max":315,"ha":315,"o":"m -178 -125 q -146 -82 -93 5 l 281 616 q 329 697 342 728 q 405 724 417 724 l 458 725 q 421 673 373 595 l -1 -18 q -49 -98 -62 -126 l -126 -125 z"},"[":{"x_min":0,"x_max":333,"ha":333,"o":"m -7 -123 l -14 -117 l 13 35 q 26 112 42 219 l 70 409 l 88 550 l 108 718 l 115 725 q 155 722 239 722 q 303 722 334 726 l 330 690 l 282 690 q 249 690 232 686 q 224 683 219 677 q 214 672 207 629 q 195 565 179 461 l 158 322 l 135 154 q 111 -14 111 -58 q 111 -74 123 -80 q 140 -89 190 -89 l 228 -89 l 222 -124 q 188 -120 133 -120 q 19 -120 -7 -123 z"},"6":{"x_min":0,"x_max":500,"ha":500,"o":"m 444 607 l 436 604 q 402 638 352 638 q 310 638 273 611 q 237 584 208 520 q 168 432 156 344 q 204 391 236 406 q 268 421 307 421 q 374 421 415 379 q 457 336 457 260 q 457 188 424 128 q 392 69 317 22 q 263 -13 199 -13 q 116 -13 68 43 q 20 100 20 215 q 20 323 60 425 q 107 546 204 618 q 301 691 388 691 q 426 691 465 677 z m 143 151 q 143 89 166 59 q 188 30 227 30 q 257 30 278 48 q 300 66 317 118 q 333 170 333 238 q 333 303 312 330 q 290 358 250 358 q 204 358 178 316 q 143 260 143 151 z"},"r":{"x_min":0,"x_max":389,"ha":389,"o":"m 58 -13 l 47 -2 q 74 85 96 179 q 108 228 118 292 q 124 335 124 357 q 124 371 121 375 q 118 380 113 380 q 106 380 91 372 q 66 358 38 335 l 26 362 q 168 475 210 475 q 223 475 231 465 q 239 456 239 438 q 239 412 203 272 l 197 246 l 203 246 q 239 330 278 387 q 316 444 344 462 q 364 475 393 475 q 406 475 419 470 q 399 406 397 335 l 386 328 q 362 349 334 349 q 290 349 253 290 q 191 189 165 6 q 103 -1 58 -13 z"},"2":{"x_min":0,"x_max":500,"ha":500,"o":"m -16 -3 l -12 25 q 36 67 125 163 q 225 269 268 352 q 311 435 311 493 q 311 551 283 580 q 255 609 208 609 q 178 609 157 599 q 136 589 120 569 q 104 548 76 487 l 46 498 q 76 570 101 632 q 131 662 167 676 q 202 691 243 691 q 332 691 383 643 q 434 595 434 515 q 434 458 403 401 q 373 345 285 261 l 178 158 l 124 106 l 124 101 l 308 102 q 388 102 433 110 l 440 103 q 434 89 426 61 q 413 16 409 -5 q 307 0 187 0 z"},"{":{"x_min":0,"x_max":333,"ha":333,"o":"m 148 298 q 185 288 199 270 q 213 252 213 217 q 213 202 209 184 l 173 -25 q 171 -34 171 -45 q 171 -78 186 -96 q 201 -115 234 -124 q 158 -124 142 -121 q 104 -113 88 -93 q 72 -73 72 -37 q 72 -18 76 3 l 111 205 q 114 222 114 234 q 114 284 52 298 q 131 318 144 392 l 183 611 q 191 657 216 684 q 241 710 285 720 q 307 725 384 725 l 373 721 q 335 710 315 687 q 294 663 288 625 l 249 406 q 240 357 216 334 q 192 311 148 298 z"},"9":{"x_min":0,"x_max":500,"ha":500,"o":"m 54 3 q 50 45 27 106 l 50 118 q 88 35 166 35 q 226 35 266 88 q 317 156 351 333 q 280 252 205 252 q 137 252 95 297 q 54 341 54 425 q 54 482 72 527 q 89 571 123 603 q 168 646 224 672 q 265 691 311 691 q 392 691 441 634 q 490 577 490 465 q 490 335 436 222 q 383 109 299 48 q 215 -13 136 -13 q 118 -13 104 -10 z m 177 448 q 177 382 200 353 q 223 324 262 324 q 308 324 337 369 q 367 414 367 514 q 367 582 344 613 q 320 643 280 643 q 228 643 202 590 q 177 538 177 448 z"}," ":{"x_min":0,"x_max":250,"ha":250,"o":""},"I":{"x_min":0,"x_max":389,"ha":389,"o":"m -10 -5 l -5 29 l 25 29 q 53 29 63 33 q 74 37 79 42 q 83 48 88 63 q 92 79 107 167 q 128 288 149 412 q 178 582 178 618 q 178 634 165 641 q 152 648 108 648 l 83 648 l 88 681 q 223 678 248 678 l 409 681 l 403 648 l 391 648 q 342 648 331 642 q 320 636 315 620 q 307 598 292 510 l 237 178 q 222 88 222 62 q 222 44 235 37 q 248 29 289 29 l 318 29 l 312 -5 q 199 0 143 0 q 75 0 -10 -5 z"},"H":{"x_min":0,"x_max":778,"ha":778,"o":"m -21 -5 l -15 29 l 15 29 q 55 29 65 43 q 76 58 93 162 l 145 472 q 164 588 164 619 q 164 634 155 641 q 146 648 121 648 l 73 648 l 79 681 l 267 678 q 293 678 392 681 l 386 648 l 350 648 q 316 648 307 634 q 298 620 274 485 l 257 383 l 293 384 l 452 382 l 546 383 l 562 477 q 578 575 578 618 q 578 636 563 642 q 548 648 490 648 l 496 681 q 649 677 683 677 q 746 677 808 681 l 802 648 l 789 648 q 742 648 731 641 q 723 635 716 610 q 704 569 686 459 l 646 224 q 624 89 624 61 q 624 42 636 38 q 649 33 704 29 l 717 29 l 711 -5 q 628 0 546 0 q 466 0 395 -5 l 400 29 l 416 29 q 470 29 480 42 q 492 60 516 201 l 538 335 l 517 336 l 392 336 l 267 335 l 249 335 l 235 253 q 208 86 208 60 q 208 43 219 38 q 235 29 283 29 l 296 29 l 291 -5 q 185 0 153 0 z"},"4":{"x_min":0,"x_max":500,"ha":500,"o":"m 92 -6 l 97 30 l 127 30 q 137 30 176 32 q 206 34 212 43 q 224 61 235 136 l 242 178 l 68 176 l -4 176 l 0 213 l 70 324 q 103 375 155 450 q 207 524 235 560 q 297 637 307 651 q 359 658 429 684 l 441 673 q 431 629 415 531 l 369 253 l 476 256 l 480 253 l 462 175 l 435 176 q 403 178 356 179 l 353 155 q 341 74 341 57 q 341 43 350 36 q 358 30 382 30 l 455 30 l 449 -5 q 355 0 286 0 q 149 0 92 -6 z m 256 253 l 289 458 l 313 593 q 216 465 170 399 q 151 369 120 325 q 88 281 77 253 z"},"~":{"x_min":0,"x_max":606,"ha":606,"o":"m 541 417 l 569 417 q 566 341 529 301 q 493 260 438 260 q 412 260 383 268 q 354 276 254 318 q 183 348 151 348 q 81 348 65 260 l 37 260 q 41 339 76 378 q 112 418 164 418 q 191 418 218 410 q 269 396 351 360 q 396 340 422 333 q 437 329 455 329 q 490 329 513 352 q 537 375 541 417 z"},"D":{"x_min":0,"x_max":778,"ha":778,"o":"m -1 -5 l 4 29 q 19 29 49 37 q 62 41 67 48 q 73 56 81 96 q 94 169 145 478 q 163 583 163 616 q 163 634 152 639 q 133 648 65 648 l 71 681 q 121 678 214 678 l 440 681 q 553 681 615 651 q 676 621 711 562 q 745 502 745 417 q 745 301 691 203 q 638 105 546 51 q 454 -4 341 -4 l 153 0 q 77 0 -1 -5 z m 202 59 l 247 51 q 316 39 357 39 q 439 39 486 80 q 545 130 576 229 q 608 327 608 421 q 608 499 583 548 q 557 597 516 617 q 476 638 387 638 q 340 638 297 630 l 266 441 l 233 245 z"},"^":{"x_min":0,"x_max":606,"ha":606,"o":"m 176 280 l 69 280 l 267 678 l 369 678 l 567 280 l 460 280 l 318 556 z"},"0":{"x_min":0,"x_max":500,"ha":500,"o":"m 34 235 q 34 423 106 557 q 179 691 298 691 q 381 691 429 629 q 478 568 478 437 q 478 305 434 192 q 391 80 326 27 q 277 -13 209 -13 q 124 -13 75 60 q 34 121 34 235 z m 151 129 q 151 70 167 48 q 183 25 211 25 q 240 25 260 48 q 290 83 321 233 q 361 430 361 557 q 361 606 343 629 q 325 653 297 653 q 271 653 252 631 q 218 592 190 450 q 151 250 151 129 z"},"F":{"x_min":0,"x_max":556,"ha":556,"o":"m -19 -5 l -14 29 l 23 29 q 59 29 68 44 q 77 60 102 208 l 138 429 q 164 584 164 622 q 164 636 152 642 q 140 648 90 648 l 67 648 l 72 681 l 154 680 l 243 678 l 508 681 q 541 681 570 677 l 574 670 q 557 575 552 516 l 517 516 l 518 580 q 518 600 513 612 q 485 632 388 632 q 351 632 298 627 q 262 418 251 343 l 343 342 q 417 342 485 349 l 488 343 l 476 293 l 305 295 q 269 295 243 293 l 221 161 q 208 84 208 67 q 208 46 222 39 q 235 31 287 31 l 309 31 l 303 -3 l 112 0 q 57 0 -19 -5 z"},"`":{"x_min":0,"x_max":333,"ha":333,"o":"m 333 518 l 293 518 l 172 604 q 143 624 136 634 q 129 644 129 656 q 129 673 141 684 q 152 695 170 695 q 187 695 199 687 q 211 679 235 646 z"},"k":{"x_min":0,"x_max":556,"ha":556,"o":"m 45 -13 l 37 0 q 74 120 112 307 l 132 407 q 169 589 169 633 q 169 646 159 650 q 149 655 106 655 l 86 655 l 95 684 q 145 688 201 701 q 258 713 297 729 l 308 719 q 266 532 242 426 l 196 225 l 234 269 q 342 396 410 441 q 460 475 513 475 q 526 475 541 473 l 541 467 l 528 420 q 523 404 522 394 l 517 390 q 487 403 470 403 q 438 403 398 382 q 359 361 324 321 q 334 289 369 194 q 404 99 426 74 q 436 64 445 64 q 468 64 520 101 l 530 72 l 443 18 q 407 -2 384 -10 q 374 -13 366 -13 q 350 -13 337 2 q 319 24 291 99 l 271 149 l 242 234 l 218 208 q 189 177 180 141 q 161 61 157 6 q 110 4 45 -13 z"},"u":{"x_min":0,"x_max":556,"ha":556,"o":"m 41 347 l 29 375 q 95 422 145 448 q 194 475 220 475 q 236 475 245 466 q 253 457 253 436 q 253 411 235 347 l 207 240 q 190 180 180 125 q 175 102 175 90 q 175 80 179 74 q 184 69 192 69 q 202 69 218 79 q 244 96 283 144 q 322 193 350 253 q 379 312 392 368 q 406 423 408 455 q 458 457 516 475 l 524 465 q 500 390 467 271 q 429 127 429 90 q 429 73 443 73 q 449 73 462 80 q 492 96 516 116 l 526 88 l 437 24 q 400 0 382 -6 q 363 -13 350 -13 q 335 -13 326 -3 q 318 8 318 28 q 318 52 335 116 l 363 223 q 304 116 212 41 q 146 -13 104 -13 q 83 -13 70 1 q 58 16 58 47 q 58 64 62 81 q 65 103 83 164 l 97 216 q 129 336 129 365 q 129 375 125 380 q 122 385 115 385 q 101 385 41 347 z"},"]":{"x_min":0,"x_max":333,"ha":333,"o":"m -3 -124 l 1 -87 l 43 -89 q 83 -90 105 -83 q 109 -81 113 -77 q 116 -72 121 -53 q 127 -25 146 105 q 172 280 196 450 q 218 613 218 655 q 218 677 204 684 q 190 691 135 690 l 102 689 l 107 726 q 151 723 227 723 q 297 723 336 726 l 344 719 q 334 679 314 558 l 261 194 q 254 145 236 3 l 222 -118 l 217 -123 l 108 -121 z"},"U":{"x_min":0,"x_max":778,"ha":778,"o":"m 717 29 l 712 -5 q 658 0 570 0 q 533 0 490 -3 l 483 2 q 484 11 491 39 q 502 86 507 126 q 432 47 366 11 q 322 -13 264 -13 q 183 -13 134 33 q 85 79 85 147 q 85 180 94 233 l 120 387 q 153 588 153 618 q 153 634 144 641 q 134 648 105 648 l 64 648 l 70 681 l 223 679 q 264 679 296 681 l 302 674 q 278 575 261 473 l 232 296 q 213 185 213 162 q 213 121 243 95 q 272 69 322 69 q 356 69 393 84 q 430 100 467 133 q 504 167 509 178 q 514 190 531 291 l 566 501 q 582 596 582 622 q 582 635 570 641 q 559 648 524 648 l 487 648 l 493 681 q 577 678 628 678 l 808 681 l 803 648 l 776 648 q 733 648 724 632 q 711 610 686 459 l 647 227 q 625 94 625 64 q 625 46 639 38 q 653 29 690 29 z"},"o":{"x_min":0,"x_max":556,"ha":556,"o":"m 47 136 q 47 234 91 325 q 116 379 193 427 q 270 475 343 475 q 399 475 436 457 q 473 439 491 406 q 508 374 508 321 q 508 254 484 187 q 459 120 427 87 q 385 45 311 11 q 259 -13 202 -13 q 123 -13 85 24 q 47 62 47 136 z m 165 147 q 165 86 187 60 q 209 34 255 34 q 287 34 311 56 q 343 85 367 164 q 392 242 392 323 q 392 378 368 405 q 345 432 305 432 q 271 432 243 408 q 215 383 194 315 q 165 218 165 147 z"},"N":{"x_min":0,"x_max":778,"ha":778,"o":"m -17 -4 l -12 29 l 13 29 q 41 29 50 35 q 60 41 65 52 q 73 68 92 164 l 124 328 q 158 533 167 593 q 146 628 130 638 q 114 648 81 648 l 44 648 l 50 681 q 116 678 170 678 q 220 678 266 681 q 273 668 305 613 q 324 579 338 556 q 485 308 585 141 l 615 322 q 659 583 659 620 q 659 634 649 641 q 640 648 615 648 l 571 648 l 576 681 q 651 678 708 678 q 763 678 812 681 l 807 648 l 772 648 q 744 648 735 637 q 725 625 706 532 q 674 381 625 89 q 615 26 610 -8 l 523 -8 l 442 134 l 208 533 q 187 411 176 347 q 136 102 136 60 q 136 43 145 36 q 154 29 178 29 l 222 29 l 216 -4 q 140 0 92 0 q 41 0 -17 -4 z"},"+":{"x_min":0,"x_max":606,"ha":606,"o":"m 54 293 l 54 385 l 257 385 l 257 588 l 349 588 l 349 385 l 552 385 l 552 293 l 349 293 l 349 90 l 257 90 l 257 293 z"},"G":{"x_min":0,"x_max":778,"ha":778,"o":"m 643 46 l 642 42 q 624 39 544 16 q 487 0 445 -7 q 403 -13 361 -13 q 217 -13 141 58 q 65 129 65 259 q 65 380 118 471 q 170 561 283 626 q 396 691 506 691 q 570 691 626 680 q 682 669 714 653 l 718 646 l 706 602 q 687 532 681 484 l 646 484 q 647 512 648 546 l 648 581 q 614 604 571 616 q 528 628 476 628 q 387 628 330 592 q 272 556 240 479 q 199 380 199 264 q 199 148 251 92 q 303 35 398 35 q 461 35 514 57 l 533 138 q 547 200 547 225 q 547 238 535 244 q 524 251 486 251 l 442 251 l 447 285 q 482 284 620 282 l 746 285 l 740 251 l 724 251 q 701 251 687 241 q 673 231 668 201 l 660 151 l 644 70 z"},"q":{"x_min":0,"x_max":537,"ha":537,"o":"m 225 -273 l 216 -255 q 237 -238 242 -224 q 252 -193 279 -80 q 306 40 344 197 q 302 133 249 83 q 196 32 141 3 q 108 -13 83 -13 q 61 -13 47 7 q 33 28 33 73 q 33 125 54 202 q 75 278 102 325 q 116 350 157 382 q 238 445 277 463 q 303 475 338 475 q 368 475 396 468 q 425 461 453 448 l 500 475 l 518 466 q 497 426 447 195 l 408 17 l 360 -206 q 356 -225 356 -236 l 357 -253 q 327 -253 225 -273 z m 385 400 q 367 411 346 417 q 326 422 304 422 q 271 422 253 411 q 235 400 220 371 q 192 314 168 225 q 145 135 145 100 q 145 84 151 76 q 158 67 167 67 q 192 67 231 104 q 282 151 322 214 q 362 277 381 380 z"},"d":{"x_min":0,"x_max":556,"ha":556,"o":"m 518 116 l 527 86 l 438 21 q 405 0 383 -8 q 368 -13 356 -13 q 339 -13 328 0 q 316 13 316 36 q 316 49 319 62 q 330 118 341 158 l 362 237 q 300 119 211 44 q 143 -13 100 -13 q 73 -13 56 11 q 39 36 39 90 q 39 146 57 217 q 76 288 105 340 q 122 370 146 388 q 221 442 267 462 q 299 476 337 476 q 362 476 400 465 l 417 572 q 425 625 425 632 q 425 644 416 649 q 407 655 379 655 q 363 655 340 655 l 346 684 q 436 686 551 729 l 564 720 q 548 658 529 569 l 445 168 q 433 113 433 86 q 433 70 444 70 q 457 70 518 116 z m 388 407 q 351 428 304 428 q 261 428 244 412 q 220 388 188 283 q 155 179 155 100 q 155 83 161 76 q 167 69 175 69 q 186 69 203 80 q 232 97 266 140 q 312 197 339 254 q 367 311 378 364 z"},"1":{"x_min":0,"x_max":500,"ha":500,"o":"m 14 -5 l 17 30 l 72 30 q 123 30 137 47 q 146 60 161 142 l 213 452 q 232 560 234 583 q 225 578 170 554 l 52 500 l 42 508 l 59 574 l 110 588 q 202 613 265 639 q 328 665 354 683 l 373 669 l 287 178 q 272 88 272 67 q 272 46 288 38 q 303 30 369 30 l 409 30 l 404 -5 q 241 0 211 0 q 100 0 14 -5 z"},"5":{"x_min":0,"x_max":500,"ha":500,"o":"m 8 33 q 24 89 34 182 l 64 178 q 63 160 63 146 q 63 90 94 58 q 126 25 178 25 q 236 25 275 76 q 323 142 323 239 q 323 305 294 337 q 265 370 212 370 q 145 370 105 306 l 74 319 q 89 397 108 502 q 118 557 125 607 l 134 671 l 139 675 q 174 665 215 659 q 256 654 304 654 q 342 654 403 661 q 441 666 465 673 l 471 664 l 427 574 q 343 567 286 567 q 240 567 209 568 q 179 569 165 571 l 125 373 q 184 423 264 423 q 322 423 363 402 q 404 381 428 340 q 452 299 452 251 q 452 181 416 119 q 379 57 318 22 q 256 -13 178 -13 q 130 -13 92 -3 q 53 7 8 33 z"}}}
